PathFileType	4	(x/y/z)	S10_M20_T01
DataRate	CameraRate	NumFrames	NumMarkers	Units	OrigDataRate	OrigDataStartFrame	OrigNumFrames
240	240	7	51	mm	240	128	508
Frame#	Time	Sternum			R.Acromium			L.Acromium			Top.Head			R.ASIS			L.ASIS			R.PSIS			L.PSIS			R.Great.Tro			L.Great.Tro			R.Iliac.Crest			L.Iliac.Crest			V.Sacral			R.Thigh.Upper.Post			R.Thigh.Lower.Ant			R.Thigh.Lower.Post			R.Thigh.Upper.Ant			R.Knee.Lat			R.Knee.Med			R.Shank.Upper.Post			R.Shank.Lower.Ant			R.Shank.Lower.Post			R.Shank.Upper.Ant			R.Ankle.Lat			R.Ankle.Med			R.Heel.Upper			R.Heel.Med			R.Heel.Lat			R.Toe.Lat			R.Toe.Med			R.Toe.Tip			L.Thigh.Upper.Post			L.Thigh.Lower.Ant			L.Thigh.Lower.Post			L.Thigh.Upper.Ant			L.Knee.Lat			L.Knee.Med			L.Shank.Upper.Post			L.Shank.Lower.Ant			L.Shank.Lower.Post			L.Shank.Upper.Ant			L.Ankle.Lat			L.Ankle.Med			L.Heel.Upper			L.Heel.Med			L.Heel.Lat			L.Toe.Lat			L.Toe.Med			L.Toe.Tip			Cervical.Spine			Back			
		X1	Y1	Z1	X2	Y2	Z2	X3	Y3	Z3	X4	Y4	Z4	X5	Y5	Z5	X6	Y6	Z6	X7	Y7	Z7	X8	Y8	Z8	X9	Y9	Z9	X10	Y10	Z10	X11	Y11	Z11	X12	Y12	Z12	X13	Y13	Z13	X14	Y14	Z14	X15	Y15	Z15	X16	Y16	Z16	X17	Y17	Z17	X18	Y18	Z18	X19	Y19	Z19	X20	Y20	Z20	X21	Y21	Z21	X22	Y22	Z22	X23	Y23	Z23	X24	Y24	Z24	X25	Y25	Z25	X26	Y26	Z26	X27	Y27	Z27	X28	Y28	Z28	X29	Y29	Z29	X30	Y30	Z30	X31	Y31	Z31	X32	Y32	Z32	X33	Y33	Z33	X34	Y34	Z34	X35	Y35	Z35	X36	Y36	Z36	X37	Y37	Z37	X38	Y38	Z38	X39	Y39	Z39	X40	Y40	Z40	X41	Y41	Z41	X42	Y42	Z42	X43	Y43	Z43	X44	Y44	Z44	X45	Y45	Z45	X46	Y46	Z46	X47	Y47	Z47	X48	Y48	Z48	X49	Y49	Z49	X50	Y50	Z50	X51	Y51	Z51	

128	0.52917	-869.71	1261.8	311.58	-1004.5	1414.4	460.43	-975.81	1446.8	158.62	-1021.9	1733.2	329.12	-918.28	993.41	410.14	-930.18	1009.2	181.74	-1122.8	1010.1	335.55	-1129.3	1024	253.81	-979.81	911.02	486.54	-1000.7	949.42	124.58	-1015.9	1073.6	461.85	-999.12	1086.4	158.3	-1146.7	982.29	298.29	-894.51	720.11	494.63	-812.86	670.41	457.73	-863.66	636.03	489.48	-843.25	756.77	457.02	-805.43	524.67	455.95	-808.5	516.28	325.47	-768.96	297.32	470.76	-681.18	272.8	466.83	-732.62	232.19	470.47	-713.46	343.02	465.9	-659.66	136.18	461.15	-640.69	152.01	386.01	-681	68.601	411.58	-656.17	51.289	384.7	-667.69	48.422	445.79	-516.99	120.72	506.09	-488.85	145.67	401.84	-451.6	188.74	448.24	-1097.2	698.23	134.77	-1047.3	601.06	156.26	-1121	606.46	156.45	-1022.3	684.68	135.93	-1110.4	508.54	166.31	-1096.7	504.65	294.08	-1215.2	312.84	171.96	-1172.1	212.82	195.29	-1228.1	237.33	185.62	-1157.3	287.73	180.69	-1230.1	106.04	206.64	-1216.2	120.51	295.35	-1303.2	81.991	253.21	-1295.2	48.769	283.94	-1298.4	54.427	219.75	-1123.9	41.984	180.98	-1097.4	43.428	290.71	-1040.4	52.937	242.36	-1067.6	1481.6	312.97	-1155.9	1276	291.54
129	0.53333	-864.49	1260.6	312.19	-999.24	1413.1	461.21	-970.76	1445.6	159.36	-1016.8	1732.1	330.07	-912.93	992.14	410.48	-925.37	1007.9	182.15	-1117.5	1008.9	336.1	-1124.1	1022.9	254.37	-974.43	909.76	486.94	-995.95	948.42	124.87	-1010.5	1072.3	462.36	-994.01	1085.3	158.81	-1141.5	981.16	298.83	-889.53	718.72	495	-808.04	668.83	458.04	-858.94	634.56	489.76	-838.2	755.26	457.38	-800.5	523.6	456.22	-804.17	514.8	325.76	-760.78	296.66	471.24	-672.61	273.48	467.14	-723.45	232.07	470.91	-705.96	343.23	466.23	-648.96	137.06	461.6	-630.43	153.14	386.37	-669.46	69.092	412.15	-644.32	52.117	385.16	-655.58	49.059	446.33	-505.72	123.79	506.05	-478.41	149.25	401.62	-441.67	192.94	447.99	-1094	697.79	135.19	-1044.5	600.42	156.4	-1118.5	606.03	157.03	-1019.1	683.85	136.08	-1108	508.24	166.5	-1094	504.19	294.25	-1213.7	313.14	172.13	-1171.2	212.82	195.45	-1227	237.67	185.81	-1156	287.68	180.82	-1229.9	106.32	206.87	-1215.7	120.75	295.55	-1303	82.328	253.47	-1295.1	48.953	284.13	-1298.3	54.786	219.95	-1123.9	41.972	181	-1097.3	43.358	290.72	-1040.3	52.74	242.37	-1062.4	1480.5	313.8	-1150.6	1274.8	292.28
130	0.5375	-859.25	1259.3	312.81	-993.97	1411.7	462	-965.69	1444.4	160.12	-1011.7	1730.9	331.03	-907.57	990.87	410.81	-920.47	1006.7	182.53	-1112.3	1007.7	336.65	-1118.9	1021.8	254.94	-969	908.52	487.34	-991.16	947.41	125.16	-1005.1	1071	462.86	-988.89	1084.3	159.31	-1136.2	980.02	299.38	-884.43	717.41	495.38	-803.09	667.33	458.34	-854.06	633.18	490.07	-833.04	753.83	457.71	-795.47	522.56	456.51	-799.78	513.37	326.09	-752.79	296.02	471.67	-664.27	274.09	467.44	-714.55	231.94	471.32	-698.61	343.39	466.55	-638.65	137.88	462	-620.54	154.19	386.68	-658.38	69.551	412.66	-632.95	52.897	385.54	-643.95	49.651	446.79	-494.89	126.64	505.98	-468.39	152.59	401.38	-432.13	196.84	447.72	-1090.8	697.32	135.64	-1041.5	599.76	156.57	-1116.1	605.52	157.72	-1015.8	683.01	136.26	-1105.5	507.92	166.73	-1091.3	503.72	294.46	-1212.2	313.45	172.32	-1170.3	212.83	195.64	-1226	238.02	186.02	-1154.6	287.63	180.97	-1229.6	106.63	207.1	-1215.2	121.01	295.76	-1302.9	82.705	253.73	-1294.9	49.173	284.33	-1298.2	55.178	220.16	-1123.8	41.961	181.04	-1097.2	43.294	290.72	-1040.2	52.537	242.38	-1057.2	1479.3	314.65	-1145.3	1273.6	293.02
131	0.54167	-853.99	1258.1	313.43	-988.68	1410.3	462.8	-960.57	1443.3	160.89	-1006.5	1729.7	332	-902.18	989.61	411.13	-915.5	1005.5	182.9	-1107	1006.6	337.22	-1113.7	1020.6	255.51	-963.52	907.31	487.76	-986.35	946.38	125.47	-999.69	1069.7	463.38	-983.77	1083.2	159.82	-1131	978.89	299.95	-879.19	716.18	495.77	-798.02	665.92	458.62	-849.03	631.88	490.41	-827.78	752.49	458.02	-790.35	521.57	456.83	-795.3	512	326.45	-744.99	295.41	472.08	-656.17	274.61	467.71	-705.93	231.79	471.69	-691.4	343.5	466.87	-628.76	138.61	462.35	-611.04	155.14	386.95	-647.77	69.955	413.11	-622.07	53.604	385.86	-632.83	50.178	447.19	-484.53	129.26	505.88	-458.81	155.66	401.11	-422.99	200.42	447.44	-1087.5	696.81	136.11	-1038.5	599.1	156.79	-1113.7	604.94	158.51	-1012.4	682.16	136.48	-1102.9	507.58	166.99	-1088.4	503.25	294.71	-1210.6	313.77	172.53	-1169.3	212.84	195.84	-1224.9	238.39	186.25	-1153.1	287.58	181.15	-1229.4	106.97	207.34	-1214.7	121.29	295.99	-1302.8	83.129	253.99	-1294.8	49.436	284.53	-1298	55.605	220.36	-1123.8	41.953	181.07	-1097	43.235	290.73	-1040.1	52.327	242.39	-1052	1478.2	315.51	-1140	1272.5	293.77
132	0.54583	-848.7	1256.8	314.06	-983.37	1408.9	463.6	-955.43	1442.1	161.67	-1001.4	1728.5	332.97	-896.78	988.34	411.45	-910.46	1004.4	183.24	-1101.7	1005.4	337.8	-1108.5	1019.5	256.1	-958	906.13	488.19	-981.53	945.34	125.79	-994.24	1068.4	463.89	-978.63	1082.1	160.33	-1125.7	977.76	300.53	-873.81	715.03	496.16	-792.81	664.61	458.88	-843.83	630.68	490.76	-822.41	751.23	458.3	-785.11	520.62	457.16	-790.73	510.69	326.85	-737.38	294.81	472.45	-648.3	275.03	467.97	-697.58	231.62	472.03	-684.33	343.54	467.18	-619.29	139.23	462.66	-601.93	155.96	387.17	-637.66	70.284	413.5	-611.72	54.214	386.13	-622.24	50.62	447.52	-474.64	131.62	505.76	-449.67	158.41	400.83	-414.24	203.62	447.13	-1084.1	696.28	136.6	-1035.3	598.43	157.04	-1111.4	604.29	159.4	-1009	681.3	136.72	-1100.2	507.23	167.29	-1085.5	502.77	294.99	-1208.9	314.11	172.76	-1168.3	212.86	196.06	-1223.7	238.76	186.51	-1151.7	287.53	181.35	-1229.2	107.33	207.58	-1214.1	121.59	296.22	-1302.6	83.602	254.25	-1294.6	49.746	284.73	-1297.9	56.071	220.57	-1123.8	41.947	181.11	-1096.9	43.181	290.73	-1040	52.11	242.4	-1046.7	1477.1	316.39	-1134.6	1271.3	294.53
133	0.55	-843.4	1255.5	314.7	-978.04	1407.5	464.42	-950.25	1441	162.47	-996.26	1727.3	333.96	-891.37	987.09	411.76	-905.35	1003.2	183.56	-1096.4	1004.3	338.39	-1103.3	1018.4	256.7	-952.43	904.98	488.63	-976.69	944.29	126.13	-988.78	1067.2	464.41	-973.48	1081	160.83	-1120.5	976.64	301.13	-868.3	713.97	496.57	-787.47	663.4	459.12	-838.47	629.57	491.14	-816.94	750.06	458.55	-779.77	519.72	457.5	-786.04	509.46	327.27	-729.97	294.22	472.8	-640.66	275.34	468.21	-689.52	231.42	472.33	-677.38	343.51	467.48	-610.25	139.73	462.93	-593.23	156.64	387.36	-628.06	70.518	413.83	-601.89	54.702	386.34	-612.19	50.958	447.8	-465.22	133.68	505.61	-440.96	160.82	400.52	-405.87	206.43	446.8	-1080.6	695.73	137.09	-1032.1	597.74	157.33	-1109	603.58	160.38	-1005.4	680.45	136.99	-1097.4	506.88	167.62	-1082.5	502.29	295.31	-1207.3	314.47	173.02	-1167.3	212.9	196.29	-1222.6	239.14	186.79	-1150.2	287.49	181.58	-1228.9	107.72	207.83	-1213.6	121.91	296.46	-1302.5	84.13	254.51	-1294.4	50.108	284.92	-1297.8	56.58	220.77	-1123.7	41.943	181.15	-1096.8	43.133	290.72	-1039.9	51.886	242.4	-1041.4	1476	317.28	-1129.2	1270.2	295.3
134	0.55417	-838.07	1254.3	315.33	-972.68	1406.1	465.24	-945.03	1439.8	163.28	-991.1	1726.2	334.97	-885.93	985.86	412.08	-900.19	1002	183.88	-1091.1	1003.1	339	-1098.1	1017.3	257.32	-946.82	903.86	489.08	-971.83	943.22	126.49	-983.3	1065.9	464.93	-968.33	1079.9	161.33	-1115.2	975.53	301.75	-862.64	712.99	496.98	-782	662.3	459.33	-832.94	628.56	491.53	-811.36	748.98	458.77	-774.3	518.87	457.85	-781.23	508.3	327.71	-722.74	293.63	473.12	-633.25	275.53	468.43	-681.75	231.18	472.61	-670.57	343.4	467.76	-601.64	140.11	463.16	-584.94	157.16	387.51	-618.97	70.641	414.13	-592.61	55.049	386.52	-602.7	51.177	448.04	-456.28	135.44	505.44	-432.68	162.85	400.2	-397.89	208.82	446.43	-1077.1	695.16	137.6	-1028.8	597.05	157.66	-1106.7	602.81	161.45	-1001.7	679.59	137.3	-1094.6	506.51	167.99	-1079.5	501.81	295.66	-1205.5	314.85	173.3	-1166.3	212.95	196.54	-1221.4	239.54	187.1	-1148.7	287.46	181.84	-1228.7	108.15	208.07	-1213	122.24	296.71	-1302.3	84.716	254.75	-1294.3	50.526	285.12	-1297.6	57.135	220.97	-1123.7	41.942	181.19	-1096.6	43.09	290.72	-1039.8	51.653	242.41	-1036	1474.8	318.19	-1123.8	1269	296.07
